<mxfile host="65bd71144e" pages="2">
    <diagram id="isS5LTfEV-B5i4dPdamE" name="map2">
        <mxGraphModel dx="738" dy="1796" grid="1" gridSize="10" guides="1" tooltips="1" connect="1" arrows="1" fold="1" page="1" pageScale="1" pageWidth="1654" pageHeight="1169" math="0" shadow="0">
            <root>
                <mxCell id="0"/>
                <mxCell id="1" parent="0"/>
                <mxCell id="21" style="edgeStyle=orthogonalEdgeStyle;html=1;entryX=1;entryY=0.75;entryDx=0;entryDy=0;dashed=1;exitX=0.5;exitY=1;exitDx=0;exitDy=0;exitPerimeter=0;" parent="1" source="26" target="30" edge="1">
                    <mxGeometry relative="1" as="geometry">
                        <mxPoint x="550" y="-877.5" as="sourcePoint"/>
                        <Array as="points">
                            <mxPoint x="520" y="-710"/>
                            <mxPoint x="420" y="-710"/>
                            <mxPoint x="420" y="-1010"/>
                        </Array>
                    </mxGeometry>
                </mxCell>
                <mxCell id="22" style="edgeStyle=orthogonalEdgeStyle;html=1;entryX=1;entryY=0.25;entryDx=0;entryDy=0;dashed=1;exitX=0.5;exitY=0;exitDx=0;exitDy=0;exitPerimeter=0;" parent="1" source="25" target="30" edge="1">
                    <mxGeometry relative="1" as="geometry">
                        <mxPoint x="620" y="-1161.5" as="sourcePoint"/>
                        <Array as="points">
                            <mxPoint x="520" y="-1120"/>
                            <mxPoint x="420" y="-1120"/>
                            <mxPoint x="420" y="-1040"/>
                        </Array>
                    </mxGeometry>
                </mxCell>
                <mxCell id="23" style="edgeStyle=orthogonalEdgeStyle;rounded=0;orthogonalLoop=1;jettySize=auto;html=1;exitX=1;exitY=0.5;exitDx=0;exitDy=0;entryX=0;entryY=0.5;entryDx=0;entryDy=0;" parent="1" source="24" edge="1">
                    <mxGeometry relative="1" as="geometry">
                        <mxPoint x="220" y="-915" as="targetPoint"/>
                    </mxGeometry>
                </mxCell>
                <mxCell id="24" value="pymongo-api&lt;br&gt;&lt;i&gt;python3&lt;/i&gt;" style="rounded=1;whiteSpace=wrap;html=1;" parent="1" vertex="1">
                    <mxGeometry x="40" y="-945" width="120" height="60" as="geometry"/>
                </mxCell>
                <mxCell id="25" value="shard1-a&lt;br&gt;&lt;i&gt;mongodb&lt;/i&gt;&lt;br&gt;(master)" style="shape=cylinder3;whiteSpace=wrap;html=1;boundedLbl=1;backgroundOutline=1;size=15;" parent="1" vertex="1">
                    <mxGeometry x="490" y="-1100" width="60" height="100" as="geometry"/>
                </mxCell>
                <mxCell id="26" value="shard2-a&lt;br&gt;&lt;i style=&quot;border-color: var(--border-color);&quot;&gt;mongodb&lt;br&gt;&lt;span style=&quot;font-style: normal;&quot;&gt;(master)&lt;/span&gt;&lt;br&gt;&lt;/i&gt;" style="shape=cylinder3;whiteSpace=wrap;html=1;boundedLbl=1;backgroundOutline=1;size=15;" parent="1" vertex="1">
                    <mxGeometry x="490" y="-837.5" width="60" height="107.5" as="geometry"/>
                </mxCell>
                <mxCell id="27" style="edgeStyle=orthogonalEdgeStyle;rounded=0;orthogonalLoop=1;jettySize=auto;html=1;exitX=1;exitY=0.25;exitDx=0;exitDy=0;" parent="1" source="31" target="25" edge="1">
                    <mxGeometry relative="1" as="geometry">
                        <mxPoint x="340" y="-930" as="sourcePoint"/>
                        <mxPoint x="620" y="-1134" as="targetPoint"/>
                        <Array as="points">
                            <mxPoint x="520" y="-930"/>
                        </Array>
                    </mxGeometry>
                </mxCell>
                <mxCell id="28" style="edgeStyle=orthogonalEdgeStyle;rounded=0;orthogonalLoop=1;jettySize=auto;html=1;exitX=1;exitY=0.75;exitDx=0;exitDy=0;entryX=0.5;entryY=0;entryDx=0;entryDy=0;entryPerimeter=0;" parent="1" source="31" target="26" edge="1">
                    <mxGeometry relative="1" as="geometry">
                        <mxPoint x="340" y="-900" as="sourcePoint"/>
                        <mxPoint x="550" y="-850" as="targetPoint"/>
                    </mxGeometry>
                </mxCell>
                <mxCell id="29" style="edgeStyle=orthogonalEdgeStyle;rounded=0;orthogonalLoop=1;jettySize=auto;html=1;exitX=0.5;exitY=1;exitDx=0;exitDy=0;" parent="1" source="30" target="31" edge="1">
                    <mxGeometry relative="1" as="geometry">
                        <mxPoint x="280" y="-945" as="targetPoint"/>
                    </mxGeometry>
                </mxCell>
                <mxCell id="30" value="&lt;div style=&quot;background-color: rgb(255, 255, 255); line-height: 20px;&quot;&gt;&lt;font style=&quot;font-size: 12px;&quot;&gt;configSrv1&lt;/font&gt;&lt;/div&gt;&lt;i style=&quot;border-color: var(--border-color);&quot;&gt;&lt;font style=&quot;font-size: 12px;&quot;&gt;mongodb&lt;/font&gt;&lt;/i&gt;" style="rounded=1;whiteSpace=wrap;html=1;" parent="1" vertex="1">
                    <mxGeometry x="220" y="-1055" width="120" height="60" as="geometry"/>
                </mxCell>
                <mxCell id="34" style="edgeStyle=orthogonalEdgeStyle;html=1;exitX=1;exitY=0.25;exitDx=0;exitDy=0;entryX=0.5;entryY=1;entryDx=0;entryDy=0;entryPerimeter=0;jumpSize=6;rounded=0;strokeColor=default;" parent="1" source="31" target="32" edge="1">
                    <mxGeometry relative="1" as="geometry"/>
                </mxCell>
                <mxCell id="35" style="edgeStyle=orthogonalEdgeStyle;rounded=0;jumpSize=6;html=1;exitX=1;exitY=0.25;exitDx=0;exitDy=0;entryX=0.5;entryY=1;entryDx=0;entryDy=0;entryPerimeter=0;strokeColor=default;" parent="1" source="31" target="33" edge="1">
                    <mxGeometry relative="1" as="geometry"/>
                </mxCell>
                <mxCell id="38" style="edgeStyle=orthogonalEdgeStyle;rounded=0;jumpSize=6;html=1;exitX=1;exitY=0.75;exitDx=0;exitDy=0;entryX=0.5;entryY=0;entryDx=0;entryDy=0;entryPerimeter=0;strokeColor=default;" parent="1" source="31" target="36" edge="1">
                    <mxGeometry relative="1" as="geometry"/>
                </mxCell>
                <mxCell id="39" style="edgeStyle=orthogonalEdgeStyle;rounded=0;jumpSize=6;html=1;exitX=1;exitY=0.75;exitDx=0;exitDy=0;entryX=0.5;entryY=0;entryDx=0;entryDy=0;entryPerimeter=0;strokeColor=default;" parent="1" source="31" target="37" edge="1">
                    <mxGeometry relative="1" as="geometry"/>
                </mxCell>
                <mxCell id="31" value="&lt;div style=&quot;background-color: rgb(255, 255, 255); line-height: 20px;&quot;&gt;&lt;font style=&quot;font-size: 12px;&quot;&gt;mongos1&lt;/font&gt;&lt;/div&gt;&lt;i style=&quot;border-color: var(--border-color);&quot;&gt;&lt;font style=&quot;font-size: 12px;&quot;&gt;mongodb&lt;/font&gt;&lt;/i&gt;" style="rounded=1;whiteSpace=wrap;html=1;" parent="1" vertex="1">
                    <mxGeometry x="220" y="-945" width="120" height="60" as="geometry"/>
                </mxCell>
                <mxCell id="40" style="edgeStyle=orthogonalEdgeStyle;rounded=1;jumpSize=6;html=1;exitX=0.5;exitY=0;exitDx=0;exitDy=0;exitPerimeter=0;strokeColor=default;dashed=1;" parent="1" source="32" edge="1">
                    <mxGeometry relative="1" as="geometry">
                        <mxPoint x="340.0000000000001" y="-1040" as="targetPoint"/>
                        <Array as="points">
                            <mxPoint x="610" y="-1120"/>
                            <mxPoint x="420" y="-1120"/>
                            <mxPoint x="420" y="-1040"/>
                        </Array>
                    </mxGeometry>
                </mxCell>
                <mxCell id="32" value="shard1-b&lt;br&gt;&lt;i&gt;mongodb&lt;/i&gt;&lt;br&gt;(replica)" style="shape=cylinder3;whiteSpace=wrap;html=1;boundedLbl=1;backgroundOutline=1;size=15;" parent="1" vertex="1">
                    <mxGeometry x="580" y="-1100" width="60" height="100" as="geometry"/>
                </mxCell>
                <mxCell id="41" style="edgeStyle=orthogonalEdgeStyle;rounded=1;jumpSize=6;html=1;exitX=0.5;exitY=0;exitDx=0;exitDy=0;exitPerimeter=0;dashed=1;strokeColor=default;" parent="1" source="33" edge="1">
                    <mxGeometry relative="1" as="geometry">
                        <mxPoint x="340.0000000000001" y="-1040" as="targetPoint"/>
                        <Array as="points">
                            <mxPoint x="700" y="-1120"/>
                            <mxPoint x="420" y="-1120"/>
                            <mxPoint x="420" y="-1040"/>
                        </Array>
                    </mxGeometry>
                </mxCell>
                <mxCell id="33" value="shard1-c&lt;br&gt;&lt;i&gt;mongodb&lt;br&gt;&lt;/i&gt;(replica)&lt;i&gt;&lt;br&gt;&lt;/i&gt;" style="shape=cylinder3;whiteSpace=wrap;html=1;boundedLbl=1;backgroundOutline=1;size=15;" parent="1" vertex="1">
                    <mxGeometry x="670" y="-1100" width="60" height="100" as="geometry"/>
                </mxCell>
                <mxCell id="42" style="edgeStyle=orthogonalEdgeStyle;rounded=1;jumpSize=6;html=1;exitX=0.5;exitY=1;exitDx=0;exitDy=0;exitPerimeter=0;dashed=1;strokeColor=default;" parent="1" source="36" edge="1">
                    <mxGeometry relative="1" as="geometry">
                        <mxPoint x="340.0000000000001" y="-1009.9999999999999" as="targetPoint"/>
                        <Array as="points">
                            <mxPoint x="610" y="-710"/>
                            <mxPoint x="420" y="-710"/>
                            <mxPoint x="420" y="-1010"/>
                        </Array>
                    </mxGeometry>
                </mxCell>
                <mxCell id="36" value="shard2-b&lt;br&gt;&lt;i style=&quot;border-color: var(--border-color);&quot;&gt;mongodb&lt;br&gt;&lt;span style=&quot;font-style: normal;&quot;&gt;(replica)&lt;/span&gt;&lt;br&gt;&lt;/i&gt;" style="shape=cylinder3;whiteSpace=wrap;html=1;boundedLbl=1;backgroundOutline=1;size=15;" parent="1" vertex="1">
                    <mxGeometry x="580" y="-837.5" width="60" height="107.5" as="geometry"/>
                </mxCell>
                <mxCell id="43" style="edgeStyle=orthogonalEdgeStyle;rounded=1;jumpSize=6;html=1;exitX=0.5;exitY=1;exitDx=0;exitDy=0;exitPerimeter=0;entryX=1;entryY=0.75;entryDx=0;entryDy=0;dashed=1;strokeColor=default;" parent="1" source="37" target="30" edge="1">
                    <mxGeometry relative="1" as="geometry">
                        <Array as="points">
                            <mxPoint x="700" y="-710"/>
                            <mxPoint x="420" y="-710"/>
                            <mxPoint x="420" y="-1010"/>
                        </Array>
                    </mxGeometry>
                </mxCell>
                <mxCell id="37" value="shard2-c&lt;br&gt;&lt;i style=&quot;border-color: var(--border-color);&quot;&gt;mongodb&lt;br&gt;&lt;span style=&quot;font-style: normal;&quot;&gt;(replica)&lt;/span&gt;&lt;br&gt;&lt;/i&gt;" style="shape=cylinder3;whiteSpace=wrap;html=1;boundedLbl=1;backgroundOutline=1;size=15;" parent="1" vertex="1">
                    <mxGeometry x="670" y="-837.5" width="60" height="107.5" as="geometry"/>
                </mxCell>
                <mxCell id="45" value="Схема 2: Репликация" style="text;html=1;strokeColor=none;fillColor=none;align=center;verticalAlign=middle;whiteSpace=wrap;rounded=0;fontFamily=Helvetica;fontSize=18;" parent="1" vertex="1">
                    <mxGeometry x="30" y="-1130" width="240" height="30" as="geometry"/>
                </mxCell>
            </root>
        </mxGraphModel>
    </diagram>
</mxfile>